<svg xmlns="http://www.w3.org/2000/svg" width="16" height="16" viewBox="0 0 16 16" fill="none">
    <path d="M6.64712 2.43217C7.35928 1.71741 8.27875 1.24127 9.27698 1.07031C10.2752 0.899318 11.3023 1.04205 12.2148 1.47853L9.81915 3.8741C9.58956 4.10435 9.4608 4.41514 9.4608 4.73901C9.4608 5.06289 9.58956 5.3737 9.81915 5.60392L10.3963 6.18126C10.5095 6.29477 10.6442 6.38489 10.7927 6.44637C10.9411 6.50789 11.1004 6.53954 11.2613 6.53954C11.4222 6.53954 11.5815 6.50789 11.73 6.44637C11.8785 6.38489 12.0132 6.29477 12.1263 6.18126L14.522 3.78569C15.009 4.80456 15.1282 5.95848 14.8597 7.05417C14.5913 8.14986 13.9515 9.12071 13.0475 9.80408C12.334 10.34 11.4855 10.6705 10.5951 10.7594C9.70468 10.8483 8.80682 10.6921 8.00004 10.3079L3.6655 14.6418C3.55237 14.7553 3.4177 14.8454 3.26925 14.9069C3.12079 14.9684 2.96152 15 2.80065 15C2.63978 15 2.48051 14.9684 2.33205 14.9069C2.1836 14.8454 2.04893 14.7553 1.93581 14.6418L1.35862 14.0644C1.12887 13.8343 1 13.5234 1 13.1995C1 12.8756 1.12887 12.5648 1.35862 12.3346L5.69379 7.99952C5.25708 7.08674 5.11431 6.06269 5.28488 5.06655C5.45547 4.07044 5.9311 3.15062 6.64712 2.43217Z" stroke="#344054" stroke-width="1.6" stroke-linecap="round" stroke-linejoin="round"/>
    </svg>