<svg xmlns="http://www.w3.org/2000/svg" width="19" height="16" viewBox="0 0 19 16" fill="none">
    <path d="M9.76489 4.29413H18.0002" stroke="#1D2939" stroke-width="1.6" stroke-linecap="round" stroke-linejoin="round"/>
    <path d="M1.52954 4.29413H3.1766" stroke="#1D2939" stroke-width="1.6" stroke-linecap="round" stroke-linejoin="round"/>
    <path d="M16.353 11.7059H18.0001" stroke="#1D2939" stroke-width="1.6" stroke-linecap="round" stroke-linejoin="round"/>
    <path d="M1.52954 11.7059H9.76484" stroke="#1D2939" stroke-width="1.6" stroke-linecap="round" stroke-linejoin="round"/>
    <path d="M6.47076 7.58823C8.29002 7.58823 9.76487 6.11337 9.76487 4.29412C9.76487 2.47483 8.29002 1 6.47076 1C4.65146 1 3.17664 2.47483 3.17664 4.29412C3.17664 6.11337 4.65146 7.58823 6.47076 7.58823Z" stroke="#1D2939" stroke-width="1.6" stroke-linecap="round" stroke-linejoin="round"/>
    <path d="M13.059 15C14.8783 15 16.3531 13.5252 16.3531 11.7059C16.3531 9.88663 14.8783 8.41177 13.059 8.41177C11.2398 8.41177 9.76489 9.88663 9.76489 11.7059C9.76489 13.5252 11.2398 15 13.059 15Z" stroke="#1D2939" stroke-width="1.6" stroke-linecap="round" stroke-linejoin="round"/>
    </svg>