<svg xmlns="http://www.w3.org/2000/svg" width="16" height="16" viewBox="0 0 16 16" fill="none">
<path d="M14.5295 2.36778C14.5295 1.88904 14.5291 1.64949 14.436 1.46664C14.3541 1.3058 14.2237 1.17512 14.0629 1.09317C13.8801 1 13.6402 1 13.1614 1H2.2199C1.74116 1 1.50203 1 1.31918 1.09317C1.15834 1.17512 1.02766 1.3058 0.945705 1.46664C0.852539 1.64949 0.852539 1.88904 0.852539 2.36778V2.998C0.852539 3.20707 0.852539 3.31169 0.876157 3.41007C0.8971 3.49729 0.93172 3.58061 0.978589 3.65709C1.03143 3.74332 1.10549 3.81737 1.25323 3.96512L5.58091 8.2928C5.72874 8.4406 5.80226 8.51411 5.85512 8.60045C5.90199 8.67687 5.93708 8.76047 5.95802 8.84775C5.98139 8.94511 5.98139 9.04846 5.98139 9.25335V13.3187C5.98139 14.0514 5.98139 14.418 6.13569 14.6387C6.27049 14.8313 6.47838 14.9599 6.71097 14.9943C6.97733 15.0336 7.30524 14.8699 7.96062 14.5422L8.64447 14.2003C8.91895 14.0631 9.0558 13.9942 9.15607 13.8918C9.24471 13.8013 9.31259 13.6926 9.35387 13.5729C9.40063 13.4374 9.40063 13.2836 9.40063 12.9767V9.25968C9.40063 9.05059 9.40063 8.94614 9.42422 8.84775C9.44517 8.76047 9.47979 8.67687 9.52672 8.60045C9.5792 8.51471 9.65254 8.44137 9.79837 8.29554L9.80137 8.2928L14.129 3.96512C14.2768 3.81728 14.3503 3.74336 14.4032 3.65709C14.4501 3.58061 14.4852 3.49729 14.5062 3.41007C14.5295 3.31269 14.5295 3.2092 14.5295 3.00436V2.36778Z" stroke="#1D2939" stroke-width="1.6" stroke-linecap="round" stroke-linejoin="round"/>
</svg>