<svg xmlns="http://www.w3.org/2000/svg" width="9" height="20" viewBox="0 0 9 20" fill="none">
<path fill-rule="evenodd" clip-rule="evenodd" d="M1.42857 1.42857V1.42715L2.14286 1.42857H1.42857ZM1.42857 17.1429C2.21572 17.1429 2.85715 17.7843 2.85715 18.5714C2.85715 19.3586 2.21572 20 1.42857 20C0.64001 20 1.01725e-05 19.3586 1.01725e-05 18.5714C1.01725e-05 17.7843 0.64001 17.1429 1.42857 17.1429ZM7.14286 17.1429C7.93001 17.1429 8.57144 17.7843 8.57144 18.5714C8.57144 19.3586 7.93001 20 7.14286 20C6.35429 20 5.71429 19.3586 5.71429 18.5714C5.71429 17.7843 6.35429 17.1429 7.14286 17.1429ZM1.42856 11.4286C2.21571 11.4286 2.85714 12.07 2.85714 12.8571C2.85714 13.6443 2.21571 14.2857 1.42856 14.2857C0.64 14.2857 0 13.6443 0 12.8571C0 12.07 0.64 11.4286 1.42856 11.4286ZM7.14285 11.4286C7.93 11.4286 8.57143 12.07 8.57143 12.8571C8.57143 13.6443 7.93 14.2857 7.14285 14.2857C6.35428 14.2857 5.71428 13.6443 5.71428 12.8571C5.71428 12.07 6.35428 11.4286 7.14285 11.4286ZM1.42856 5.71427C2.21571 5.71427 2.85714 6.35571 2.85714 7.14284C2.85714 7.92999 2.21571 8.57142 1.42856 8.57142C0.64 8.57142 0 7.92999 0 7.14284C0 6.35571 0.64 5.71427 1.42856 5.71427ZM7.14285 5.71427C7.93 5.71427 8.57143 6.35571 8.57143 7.14284C8.57143 7.92999 7.93 8.57142 7.14285 8.57142C6.35428 8.57142 5.71428 7.92999 5.71428 7.14284C5.71428 6.35571 6.35428 5.71427 7.14285 5.71427ZM1.42856 0C2.21571 0 2.85714 0.641427 2.85714 1.42857C2.85714 2.21572 2.21571 2.85715 1.42856 2.85715C0.64 2.85715 0 2.21572 0 1.42857C0 0.641427 0.640011 0 1.42856 0ZM7.14214 0C7.92928 0 8.57071 0.641427 8.57071 1.42857C8.57071 2.21572 7.92928 2.85715 7.14214 2.85715C6.355 2.85715 5.71356 2.21572 5.71356 1.42857C5.71356 0.641427 6.35501 0 7.14214 0Z" fill="#334155"/>
</svg>